<svg width="600" height="600" xmlns="http://www.w3.org/2000/svg">
<line x1="300" y1="319.0" x2="420" y2="272.8" stroke="white" stroke-width="8"/><line x1="300" y1="319.0" x2="450" y2="404.8" stroke="white" stroke-width="8"/><line x1="300" y1="319.0" x2="150" y2="404.8" stroke="white" stroke-width="8"/><line x1="300" y1="319.0" x2="180" y2="272.8" stroke="white" stroke-width="8"/><line x1="300" y1="319.0" x2="300" y2="451.00000000000006" stroke="white" stroke-width="8"/><line x1="300" y1="319.0" x2="300" y2="206.8" stroke="white" stroke-width="8"/><line x1="300" y1="206.8" x2="420" y2="272.8" stroke="white" stroke-width="8"/><line x1="300" y1="206.8" x2="180" y2="272.8" stroke="white" stroke-width="8"/><line x1="300" y1="206.8" x2="510" y2="140.8" stroke="white" stroke-width="8"/><line x1="300" y1="206.8" x2="300" y2="107.80000000000001" stroke="white" stroke-width="8"/><line x1="300" y1="206.8" x2="90" y2="140.8" stroke="white" stroke-width="8"/><line x1="300" y1="107.80000000000001" x2="510" y2="140.8" stroke="white" stroke-width="8"/><line x1="300" y1="107.80000000000001" x2="90" y2="140.8" stroke="white" stroke-width="8"/><line x1="420" y1="272.8" x2="450" y2="404.8" stroke="white" stroke-width="8"/><line x1="150" y1="404.8" x2="180" y2="272.8" stroke="white" stroke-width="8"/><line x1="180" y1="272.8" x2="90" y2="140.8" stroke="white" stroke-width="8"/><line x1="420" y1="272.8" x2="510" y2="140.8" stroke="white" stroke-width="8"/><line x1="450" y1="404.8" x2="300" y2="451.00000000000006" stroke="white" stroke-width="8"/><line x1="300" y1="451.00000000000006" x2="150" y2="404.8" stroke="white" stroke-width="8"/><circle cx="420" cy="272.8" r="26" fill="white"/><circle cx="450" cy="404.8" r="26" fill="white"/><circle cx="150" cy="404.8" r="26" fill="white"/><circle cx="180" cy="272.8" r="26" fill="white"/><circle cx="300" cy="451.00000000000006" r="26" fill="white"/><circle cx="510" cy="140.8" r="26" fill="white"/><circle cx="300" cy="319.0" r="26" fill="white"/><circle cx="300" cy="107.80000000000001" r="26" fill="white"/><circle cx="300" cy="206.8" r="26" fill="white"/><circle cx="90" cy="140.8" r="26" fill="white"/>
</svg>