<svg width="600" height="600" xmlns="http://www.w3.org/2000/svg">
<line x1="420" y1="437.8" x2="300" y2="437.8" stroke="white" stroke-width="8"/><line x1="300" y1="437.8" x2="180" y2="437.8" stroke="white" stroke-width="8"/><line x1="180" y1="437.8" x2="60" y2="437.8" stroke="white" stroke-width="8"/><line x1="420" y1="437.8" x2="540" y2="437.8" stroke="white" stroke-width="8"/><line x1="132" y1="305.8" x2="240" y2="305.8" stroke="white" stroke-width="8"/><line x1="240" y1="305.8" x2="360" y2="305.8" stroke="white" stroke-width="8"/><line x1="360" y1="305.8" x2="468" y2="305.8" stroke="white" stroke-width="8"/><circle cx="420" cy="437.8" r="26" fill="white"/><circle cx="300" cy="437.8" r="26" fill="white"/><circle cx="180" cy="437.8" r="26" fill="white"/><circle cx="60" cy="437.8" r="26" fill="white"/><circle cx="240" cy="305.8" r="26" fill="white"/><circle cx="540" cy="437.8" r="26" fill="white"/><circle cx="360" cy="305.8" r="26" fill="white"/><circle cx="300" cy="193.60000000000002" r="26" fill="white"/><circle cx="468" cy="305.8" r="26" fill="white"/><circle cx="132" cy="305.8" r="26" fill="white"/>
</svg>