<svg width="600" height="600" xmlns="http://www.w3.org/2000/svg">
<line x1="378" y1="451.00000000000006" x2="222" y2="451.00000000000006" stroke="white" stroke-width="8"/><line x1="462" y1="239.8" x2="300" y2="253.00000000000003" stroke="white" stroke-width="8"/><line x1="300" y1="253.00000000000003" x2="138" y2="239.8" stroke="white" stroke-width="8"/><line x1="540" y1="94.60000000000001" x2="414" y2="154.0" stroke="white" stroke-width="8"/><line x1="414" y1="154.0" x2="300" y2="101.2" stroke="white" stroke-width="8"/><line x1="300" y1="101.2" x2="186" y2="154.0" stroke="white" stroke-width="8"/><line x1="186" y1="154.0" x2="60" y2="94.60000000000001" stroke="white" stroke-width="8"/><circle cx="462" cy="239.8" r="26" fill="white"/><circle cx="378" cy="451.00000000000006" r="26" fill="white"/><circle cx="222" cy="451.00000000000006" r="26" fill="white"/><circle cx="138" cy="239.8" r="26" fill="white"/><circle cx="300" cy="253.00000000000003" r="26" fill="white"/><circle cx="540" cy="94.60000000000001" r="26" fill="white"/><circle cx="414" cy="154.0" r="26" fill="white"/><circle cx="300" cy="101.2" r="26" fill="white"/><circle cx="186" cy="154.0" r="26" fill="white"/><circle cx="60" cy="94.60000000000001" r="26" fill="white"/>
</svg>