<svg width="600" height="600" xmlns="http://www.w3.org/2000/svg">
<line x1="378" y1="451.00000000000006" x2="222" y2="451.00000000000006" stroke="white" stroke-width="8"/><line x1="540" y1="286.0" x2="402" y2="226.60000000000002" stroke="white" stroke-width="8"/><line x1="402" y1="226.60000000000002" x2="300" y2="305.8" stroke="white" stroke-width="8"/><line x1="300" y1="305.8" x2="198" y2="226.60000000000002" stroke="white" stroke-width="8"/><line x1="198" y1="226.60000000000002" x2="60" y2="286.0" stroke="white" stroke-width="8"/><line x1="474" y1="127.60000000000001" x2="300" y2="127.60000000000001" stroke="white" stroke-width="8"/><line x1="300" y1="127.60000000000001" x2="126" y2="127.60000000000001" stroke="white" stroke-width="8"/><circle cx="540" cy="286.0" r="26" fill="white"/><circle cx="378" cy="451.00000000000006" r="26" fill="white"/><circle cx="222" cy="451.00000000000006" r="26" fill="white"/><circle cx="60" cy="286.0" r="26" fill="white"/><circle cx="300" cy="305.8" r="26" fill="white"/><circle cx="474" cy="127.60000000000001" r="26" fill="white"/><circle cx="402" cy="226.60000000000002" r="26" fill="white"/><circle cx="300" cy="127.60000000000001" r="26" fill="white"/><circle cx="198" cy="226.60000000000002" r="26" fill="white"/><circle cx="126" cy="127.60000000000001" r="26" fill="white"/>
</svg>