<svg width="600" height="600" xmlns="http://www.w3.org/2000/svg">
<line x1="450" y1="404.8" x2="300" y2="451.00000000000006" stroke="white" stroke-width="8"/><line x1="300" y1="451.00000000000006" x2="150" y2="404.8" stroke="white" stroke-width="8"/><line x1="210" y1="305.8" x2="390" y2="305.8" stroke="white" stroke-width="8"/><line x1="540" y1="140.8" x2="402" y2="173.8" stroke="white" stroke-width="8"/><line x1="402" y1="173.8" x2="300" y2="107.80000000000001" stroke="white" stroke-width="8"/><line x1="300" y1="107.80000000000001" x2="198" y2="173.8" stroke="white" stroke-width="8"/><line x1="198" y1="173.8" x2="60" y2="140.8" stroke="white" stroke-width="8"/><circle cx="450" cy="404.8" r="26" fill="white"/><circle cx="300" cy="451.00000000000006" r="26" fill="white"/><circle cx="150" cy="404.8" r="26" fill="white"/><circle cx="60" cy="140.8" r="26" fill="white"/><circle cx="210" cy="305.8" r="26" fill="white"/><circle cx="540" cy="140.8" r="26" fill="white"/><circle cx="390" cy="305.8" r="26" fill="white"/><circle cx="300" cy="107.80000000000001" r="26" fill="white"/><circle cx="402" cy="173.8" r="26" fill="white"/><circle cx="198" cy="173.8" r="26" fill="white"/>
</svg>