<svg width="600" height="600" xmlns="http://www.w3.org/2000/svg">
<line x1="450" y1="404.8" x2="300" y2="451.00000000000006" stroke="white" stroke-width="8"/><line x1="300" y1="451.00000000000006" x2="150" y2="404.8" stroke="white" stroke-width="8"/><line x1="60" y1="272.8" x2="186" y2="246.40000000000003" stroke="white" stroke-width="8"/><line x1="186" y1="246.40000000000003" x2="300" y2="305.8" stroke="white" stroke-width="8"/><line x1="300" y1="305.8" x2="414" y2="246.40000000000003" stroke="white" stroke-width="8"/><line x1="414" y1="246.40000000000003" x2="540" y2="272.8" stroke="white" stroke-width="8"/><line x1="216" y1="107.80000000000001" x2="384" y2="107.80000000000001" stroke="white" stroke-width="8"/><circle cx="450" cy="404.8" r="26" fill="white"/><circle cx="300" cy="451.00000000000006" r="26" fill="white"/><circle cx="150" cy="404.8" r="26" fill="white"/><circle cx="60" cy="272.8" r="26" fill="white"/><circle cx="186" cy="246.40000000000003" r="26" fill="white"/><circle cx="540" cy="272.8" r="26" fill="white"/><circle cx="414" cy="246.40000000000003" r="26" fill="white"/><circle cx="384" cy="107.80000000000001" r="26" fill="white"/><circle cx="300" cy="305.8" r="26" fill="white"/><circle cx="216" cy="107.80000000000001" r="26" fill="white"/>
</svg>