<svg width="600" height="600" xmlns="http://www.w3.org/2000/svg">
<line x1="522" y1="418.00000000000006" x2="378" y2="451.00000000000006" stroke="white" stroke-width="8"/><line x1="378" y1="451.00000000000006" x2="222" y2="451.00000000000006" stroke="white" stroke-width="8"/><line x1="222" y1="451.00000000000006" x2="78" y2="418.00000000000006" stroke="white" stroke-width="8"/><line x1="468" y1="220.00000000000003" x2="390" y2="305.8" stroke="white" stroke-width="8"/><line x1="390" y1="305.8" x2="210" y2="305.8" stroke="white" stroke-width="8"/><line x1="210" y1="305.8" x2="132" y2="220.00000000000003" stroke="white" stroke-width="8"/><line x1="360" y1="107.80000000000001" x2="240" y2="107.80000000000001" stroke="white" stroke-width="8"/><line x1="522" y1="418.00000000000006" x2="468" y2="220.00000000000003" stroke="white" stroke-width="8"/><line x1="378" y1="451.00000000000006" x2="390" y2="305.8" stroke="white" stroke-width="8"/><line x1="390" y1="305.8" x2="360" y2="107.80000000000001" stroke="white" stroke-width="8"/><line x1="222" y1="451.00000000000006" x2="210" y2="305.8" stroke="white" stroke-width="8"/><line x1="210" y1="305.8" x2="240" y2="107.80000000000001" stroke="white" stroke-width="8"/><line x1="78" y1="418.00000000000006" x2="132" y2="220.00000000000003" stroke="white" stroke-width="8"/><line x1="468" y1="220.00000000000003" x2="360" y2="107.80000000000001" stroke="white" stroke-width="8"/><line x1="240" y1="107.80000000000001" x2="132" y2="220.00000000000003" stroke="white" stroke-width="8"/><circle cx="522" cy="418.00000000000006" r="26" fill="white"/><circle cx="378" cy="451.00000000000006" r="26" fill="white"/><circle cx="222" cy="451.00000000000006" r="26" fill="white"/><circle cx="78" cy="418.00000000000006" r="26" fill="white"/><circle cx="210" cy="305.8" r="26" fill="white"/><circle cx="468" cy="220.00000000000003" r="26" fill="white"/><circle cx="390" cy="305.8" r="26" fill="white"/><circle cx="360" cy="107.80000000000001" r="26" fill="white"/><circle cx="240" cy="107.80000000000001" r="26" fill="white"/><circle cx="132" cy="220.00000000000003" r="26" fill="white"/>
</svg>