<svg width="600" height="600" xmlns="http://www.w3.org/2000/svg">
<line x1="522" y1="418.00000000000006" x2="378" y2="451.00000000000006" stroke="white" stroke-width="8"/><line x1="378" y1="451.00000000000006" x2="222" y2="451.00000000000006" stroke="white" stroke-width="8"/><line x1="222" y1="451.00000000000006" x2="78" y2="418.00000000000006" stroke="white" stroke-width="8"/><line x1="300" y1="352.0" x2="378" y2="451.00000000000006" stroke="white" stroke-width="8"/><line x1="300" y1="352.0" x2="222" y2="451.00000000000006" stroke="white" stroke-width="8"/><line x1="300" y1="352.0" x2="420" y2="266.20000000000005" stroke="white" stroke-width="8"/><line x1="300" y1="352.0" x2="180" y2="266.20000000000005" stroke="white" stroke-width="8"/><line x1="462" y1="140.8" x2="420" y2="266.20000000000005" stroke="white" stroke-width="8"/><line x1="420" y1="266.20000000000005" x2="300" y2="187.00000000000003" stroke="white" stroke-width="8"/><line x1="300" y1="187.00000000000003" x2="180" y2="266.20000000000005" stroke="white" stroke-width="8"/><line x1="180" y1="266.20000000000005" x2="138" y2="140.8" stroke="white" stroke-width="8"/><line x1="462" y1="140.8" x2="300" y2="187.00000000000003" stroke="white" stroke-width="8"/><line x1="300" y1="187.00000000000003" x2="138" y2="140.8" stroke="white" stroke-width="8"/><circle cx="522" cy="418.00000000000006" r="26" fill="white"/><circle cx="378" cy="451.00000000000006" r="26" fill="white"/><circle cx="222" cy="451.00000000000006" r="26" fill="white"/><circle cx="78" cy="418.00000000000006" r="26" fill="white"/><circle cx="300" cy="352.0" r="26" fill="white"/><circle cx="462" cy="140.8" r="26" fill="white"/><circle cx="420" cy="266.20000000000005" r="26" fill="white"/><circle cx="300" cy="187.00000000000003" r="26" fill="white"/><circle cx="180" cy="266.20000000000005" r="26" fill="white"/><circle cx="138" cy="140.8" r="26" fill="white"/>
</svg>