<svg width="600" height="600" xmlns="http://www.w3.org/2000/svg">
<line x1="420" y1="437.8" x2="300" y2="437.8" stroke="white" stroke-width="8"/><line x1="300" y1="437.8" x2="180" y2="437.8" stroke="white" stroke-width="8"/><line x1="180" y1="437.8" x2="60" y2="437.8" stroke="white" stroke-width="8"/><line x1="420" y1="437.8" x2="540" y2="437.8" stroke="white" stroke-width="8"/><line x1="210" y1="305.8" x2="300" y2="305.8" stroke="white" stroke-width="8"/><line x1="300" y1="305.8" x2="390" y2="305.8" stroke="white" stroke-width="8"/><line x1="372" y1="154.0" x2="228" y2="154.0" stroke="white" stroke-width="8"/><circle cx="420" cy="437.8" r="26" fill="white"/><circle cx="300" cy="437.8" r="26" fill="white"/><circle cx="180" cy="437.8" r="26" fill="white"/><circle cx="60" cy="437.8" r="26" fill="white"/><circle cx="300" cy="305.8" r="26" fill="white"/><circle cx="540" cy="437.8" r="26" fill="white"/><circle cx="390" cy="305.8" r="26" fill="white"/><circle cx="372" cy="154.0" r="26" fill="white"/><circle cx="228" cy="154.0" r="26" fill="white"/><circle cx="210" cy="305.8" r="26" fill="white"/>
</svg>