<svg xmlns="http://www.w3.org/2000/svg" viewBox="0 0 100 100" width="100" height="100">
  <rect x="0" y="0" width="100" height="100" fill="#f5f3ee" />
  <rect x="20.0" y="0" width="5.454545454545454" height="100" fill="#1a3a6e" opacity="0.55" />
  <rect x="25.454545454545453" y="0" width="5.454545454545454" height="100" fill="#2255a0" opacity="0.55" />
  <rect x="30.909090909090907" y="0" width="5.454545454545454" height="100" fill="#3b7dd8" opacity="0.55" />
  <rect x="36.36363636363636" y="0" width="5.454545454545454" height="100" fill="#6aaddc" opacity="0.55" />
  <rect x="41.81818181818181" y="0" width="5.454545454545454" height="100" fill="#a8d4e8" opacity="0.55" />
  <rect x="47.272727272727266" y="0" width="5.454545454545454" height="100" fill="#bc002d" opacity="0.85" />
  <rect x="52.72727272727273" y="0" width="5.454545454545454" height="100" fill="#e8a020" opacity="0.55" />
  <rect x="58.18181818181818" y="0" width="5.454545454545454" height="100" fill="#e8d020" opacity="0.55" />
  <rect x="63.63636363636363" y="0" width="5.454545454545454" height="100" fill="#5cb85c" opacity="0.55" />
  <rect x="69.0909090909091" y="0" width="5.454545454545454" height="100" fill="#8e44ad" opacity="0.55" />
  <rect x="74.54545454545453" y="0" width="5.454545454545454" height="100" fill="#d4a0c8" opacity="0.55" />
  <circle cx="22.0" cy="23.6" r="3.4" fill="#111111" opacity="0.7" />
  <circle cx="18.88230854637602" cy="18.2" r="3.4" fill="#111111" opacity="0.7" />
  <circle cx="25.117691453623976" cy="18.2" r="3.4" fill="#111111" opacity="0.7" />
  <circle cx="22" cy="20" r="1.6" fill="#111111" opacity="0.7" />
  <circle cx="68" cy="22" r="5.5" fill="#bc002d" opacity="0.12" />
  <circle cx="68" cy="22" r="4.5" fill="#bc002d" opacity="0.22" />
  <circle cx="68" cy="22" r="3.5" fill="#bc002d" opacity="0.75" />
  <defs>
    <linearGradient id="fade_bot" x1="0" y1="0.7" x2="0" y2="1" gradientUnits="objectBoundingBox">
      <stop offset="0%" stop-color="#f5f3ee" stop-opacity="0" />
      <stop offset="100%" stop-color="#f5f3ee" stop-opacity="0.6" />
    </linearGradient>
  </defs>
  <rect x="0" y="0" width="100" height="100" fill="url(#fade_bot)" />
</svg>