<svg xmlns="http://www.w3.org/2000/svg" viewBox="0 0 100 100" width="100" height="100">
  <defs>
    <linearGradient id="bg_grad" x1="0" y1="0" x2="0" y2="1" gradientUnits="objectBoundingBox">
      <stop offset="0%" stop-color="#1a4a7a" />
      <stop offset="55%" stop-color="#12406e" />
      <stop offset="100%" stop-color="#0c2952" />
    </linearGradient>
    <linearGradient id="horizon_grad" x1="0" y1="0" x2="1" y2="0" gradientUnits="objectBoundingBox">
      <stop offset="0%" stop-color="#2a6aaa" stop-opacity="0" />
      <stop offset="30%" stop-color="#2a6aaa" stop-opacity="0.7" />
      <stop offset="50%" stop-color="#3a80cc" stop-opacity="1" />
      <stop offset="70%" stop-color="#2a6aaa" stop-opacity="0.7" />
      <stop offset="100%" stop-color="#2a6aaa" stop-opacity="0" />
    </linearGradient>
  </defs>
  <rect x="0" y="0" width="100" height="100" fill="url(#bg_grad)" />
  <line x1="15" y1="18" x2="32" y2="12" stroke="#ffffff" stroke-width="1.2" opacity="0.85" />
  <line x1="15" y1="22" x2="32" y2="16" stroke="#ffffff" stroke-width="1.2" opacity="0.85" />
  <line x1="15" y1="26" x2="32" y2="20" stroke="#ffffff" stroke-width="1.2" opacity="0.85" />
  <line x1="85" y1="18" x2="68" y2="12" stroke="#ffffff" stroke-width="1.2" opacity="0.85" />
  <line x1="85" y1="22" x2="68" y2="16" stroke="#ffffff" stroke-width="1.2" opacity="0.85" />
  <line x1="85" y1="26" x2="68" y2="20" stroke="#ffffff" stroke-width="1.2" opacity="0.85" />
  <path d="M 0.0,42.0 L 5.0,44.9 L 10.0,45.6 L 15.0,43.6 L 20.0,40.4 L 25.0,38.4 L 30.0,39.1 L 35.0,42.0 L 40.0,44.9 L 45.0,45.6 L 50.0,43.6 L 55.0,40.4 L 60.0,38.4 L 65.0,39.1 L 70.0,42.0 L 75.0,44.9 L 80.0,45.6 L 85.0,43.6 L 90.0,40.4 L 95.0,38.4 L 100.0,39.1" fill="none" stroke="url(#horizon_grad)" stroke-width="1.6" opacity="0.35" stroke-linecap="round" />
  <path d="M 0.0,47.0 L 5.0,49.3 L 10.0,49.9 L 15.0,48.3 L 20.0,45.7 L 25.0,44.1 L 30.0,44.7 L 35.0,47.0 L 40.0,49.3 L 45.0,49.9 L 50.0,48.3 L 55.0,45.7 L 60.0,44.1 L 65.0,44.7 L 70.0,47.0 L 75.0,49.3 L 80.0,49.9 L 85.0,48.3 L 90.0,45.7 L 95.0,44.1 L 100.0,44.7" fill="none" stroke="url(#horizon_grad)" stroke-width="1.8" opacity="0.5" stroke-linecap="round" />
  <path d="M 0.0,52.0 L 5.0,53.8 L 10.0,54.2 L 15.0,53.0 L 20.0,51.0 L 25.0,49.8 L 30.0,50.2 L 35.0,52.0 L 40.0,53.8 L 45.0,54.2 L 50.0,53.0 L 55.0,51.0 L 60.0,49.8 L 65.0,50.2 L 70.0,52.0 L 75.0,53.8 L 80.0,54.2 L 85.0,53.0 L 90.0,51.0 L 95.0,49.8 L 100.0,50.2" fill="none" stroke="url(#horizon_grad)" stroke-width="2.0" opacity="0.75" stroke-linecap="round" />
  <path d="M 0.0,57.0 L 5.0,58.3 L 10.0,58.6 L 15.0,57.7 L 20.0,56.3 L 25.0,55.4 L 30.0,55.7 L 35.0,57.0 L 40.0,58.3 L 45.0,58.6 L 50.0,57.7 L 55.0,56.3 L 60.0,55.4 L 65.0,55.7 L 70.0,57.0 L 75.0,58.3 L 80.0,58.6 L 85.0,57.7 L 90.0,56.3 L 95.0,55.4 L 100.0,55.7" fill="none" stroke="url(#horizon_grad)" stroke-width="2.3" opacity="0.95" stroke-linecap="round" />
  <path d="M 0.0,62.0 L 5.0,62.8 L 10.0,63.0 L 15.0,62.4 L 20.0,61.6 L 25.0,61.0 L 30.0,61.2 L 35.0,62.0 L 40.0,62.8 L 45.0,63.0 L 50.0,62.4 L 55.0,61.6 L 60.0,61.0 L 65.0,61.2 L 70.0,62.0 L 75.0,62.8 L 80.0,63.0 L 85.0,62.4 L 90.0,61.6 L 95.0,61.0 L 100.0,61.2" fill="none" stroke="url(#horizon_grad)" stroke-width="1.7" opacity="0.55" stroke-linecap="round" />
  <circle cx="50" cy="20" r="8" fill="#ffffff" opacity="0.92" />
  <circle cx="50" cy="20" r="4" fill="#bc002d" />
</svg>