<svg xmlns="http://www.w3.org/2000/svg" viewBox="0 0 100 100" width="100" height="100">
  <rect x="0.0" y="0" width="6.25" height="100" fill="#111111" />
  <rect x="6.25" y="0" width="6.25" height="100" fill="white" />
  <rect x="12.5" y="0" width="6.25" height="100" fill="#111111" />
  <rect x="18.75" y="0" width="6.25" height="100" fill="white" />
  <rect x="25.0" y="0" width="6.25" height="100" fill="#111111" />
  <rect x="31.25" y="0" width="6.25" height="100" fill="white" />
  <rect x="37.5" y="0" width="6.25" height="100" fill="#111111" />
  <rect x="43.75" y="0" width="6.25" height="100" fill="white" />
  <rect x="50.0" y="0" width="6.25" height="100" fill="#111111" />
  <rect x="56.25" y="0" width="6.25" height="100" fill="white" />
  <rect x="62.5" y="0" width="6.25" height="100" fill="#111111" />
  <rect x="68.75" y="0" width="6.25" height="100" fill="white" />
  <rect x="75.0" y="0" width="6.25" height="100" fill="#111111" />
  <rect x="81.25" y="0" width="6.25" height="100" fill="white" />
  <rect x="87.5" y="0" width="6.25" height="100" fill="#111111" />
  <rect x="93.75" y="0" width="6.25" height="100" fill="white" />
</svg>