<svg width="600" height="600" xmlns="http://www.w3.org/2000/svg">
<line x1="522" y1="418.00000000000006" x2="378" y2="451.00000000000006" stroke="white" stroke-width="8"/><line x1="378" y1="451.00000000000006" x2="222" y2="451.00000000000006" stroke="white" stroke-width="8"/><line x1="222" y1="451.00000000000006" x2="78" y2="418.00000000000006" stroke="white" stroke-width="8"/><line x1="522" y1="292.6" x2="378" y2="325.6" stroke="white" stroke-width="8"/><line x1="378" y1="325.6" x2="222" y2="325.6" stroke="white" stroke-width="8"/><line x1="222" y1="325.6" x2="78" y2="292.6" stroke="white" stroke-width="8"/><line x1="372" y1="154.0" x2="228" y2="154.0" stroke="white" stroke-width="8"/><line x1="522" y1="418.00000000000006" x2="522" y2="292.6" stroke="white" stroke-width="8"/><line x1="378" y1="451.00000000000006" x2="378" y2="325.6" stroke="white" stroke-width="8"/><line x1="378" y1="325.6" x2="372" y2="154.0" stroke="white" stroke-width="8"/><line x1="222" y1="451.00000000000006" x2="222" y2="325.6" stroke="white" stroke-width="8"/><line x1="222" y1="325.6" x2="228" y2="154.0" stroke="white" stroke-width="8"/><line x1="78" y1="418.00000000000006" x2="78" y2="292.6" stroke="white" stroke-width="8"/><circle cx="522" cy="418.00000000000006" r="26" fill="white"/><circle cx="378" cy="451.00000000000006" r="26" fill="white"/><circle cx="222" cy="451.00000000000006" r="26" fill="white"/><circle cx="78" cy="418.00000000000006" r="26" fill="white"/><circle cx="222" cy="325.6" r="26" fill="white"/><circle cx="522" cy="292.6" r="26" fill="white"/><circle cx="378" cy="325.6" r="26" fill="white"/><circle cx="372" cy="154.0" r="26" fill="white"/><circle cx="228" cy="154.0" r="26" fill="white"/><circle cx="78" cy="292.6" r="26" fill="white"/>
</svg>